<svg width="214" height="80" viewBox="0 0 214 80" fill="none" xmlns="http://www.w3.org/2000/svg">
<rect x="92" width="122" height="80" rx="20" fill="white"/>
<path d="M0.0560002 64H9.336V45.632H23.736V36.8H9.336V27.392H27.704V18.56H0.0560002V64ZM37.8885 26.752C41.0245 26.752 43.5205 24.256 43.5205 21.184C43.5205 18.112 41.0245 15.616 37.8885 15.616C34.8805 15.616 32.3205 18.112 32.3205 21.184C32.3205 24.256 34.8805 26.752 37.8885 26.752ZM33.5365 64H42.3045V32H33.5365V64ZM50.724 64H59.492V48.384C59.492 42.24 62.5 39.296 66.596 39.296C70.244 39.296 72.228 42.112 72.228 46.72V64H80.996V45.248C80.996 36.928 76.388 31.296 68.644 31.296C64.484 31.296 61.22 33.088 59.492 35.648V32H50.724V64Z" fill="#29374E"/>
<path d="M137.984 64H150.016L127.424 40.384L146.112 18.56H134.656L118.272 37.824V18.56H109.056V64H118.272V43.392L137.984 64ZM157.397 26.752C160.533 26.752 163.03 24.256 163.03 21.184C163.03 18.112 160.533 15.616 157.397 15.616C154.389 15.616 151.829 18.112 151.829 21.184C151.829 24.256 154.389 26.752 157.397 26.752ZM153.045 64H161.813V32H153.045V64ZM186.105 64.384C188.601 64.384 190.201 64.128 191.673 63.68V55.936C190.649 56.32 189.433 56.512 188.089 56.512C184.249 56.512 182.649 54.976 182.649 51.072V39.68H191.673V32H182.649V23.104H173.881V32H167.417V39.68H173.881V52.8C173.881 60.672 179.321 64.384 186.105 64.384Z" fill="#0962E8"/>
</svg>

